<svg xmlns="http://www.w3.org/2000/svg" viewBox="0 0 4000 4000">
  <path fill="#000000" d="M 0.00 4000.00 L 0.00 0.00 L 4000.00 0.00 L 4000.00 4000.00"/>
  <path fill="#ffffff" d="M 4000.00 0.00 L 0.00 0.00 L 0.00 4000.00 L 4000.00 4000.00 L 4000.00 0.00 Z"/>
  <path fill="#ffffff" d="M 2354.64 1602.03 C 2424.02 1591.25 2491.24 1651.61 2522.68 1681.74 C 2584.06 1740.55 2602.08 1808.67 2623.81 1835.57 C 2617.05 1750.64 2567.77 1672.55 2525.13 1634.71 C 2550.25 1581.42 2684.51 1494.58 2743.70 1452.52 C 2850.02 1376.97 2833.09 1402.43 2889.13 1197.06 C 2923.41 1071.36 2896.27 1121.34 2854.77 999.85 L 2350.83 1014.87 C 2355.60 1065.44 2370.73 1017.96 2382.64 1087.39 C 2392.07 1142.48 2480.29 1307.34 2511.73 1363.10 C 2531.11 1397.46 2537.62 1391.46 2530.63 1439.02 C 2522.52 1494.16 2504.88 1558.65 2500.33 1610.17 C 2477.20 1602.98 2462.15 1588.50 2437.55 1579.57 C 2404.40 1567.55 2391.96 1573.20 2360.68 1567.97 C 2346.05 1565.53 2324.75 1543.60 2306.13 1533.07 C 2287.07 1522.23 2261.13 1516.93 2243.61 1505.56 C 2261.13 1469.29 2288.11 1432.08 2308.29 1395.39 C 2323.76 1367.25 2317.33 1364.84 2310.93 1332.33 L 2268.59 1120.69 L 2200.09 1018.32 L 1883.92 1020.52 C 1870.36 1067.68 1895.46 1057.91 1894.54 1091.32 C 1892.46 1166.43 1867.27 1161.74 1892.58 1333.23 C 1905.67 1421.89 1940.98 1439.02 1963.08 1519.82 C 1968.47 1539.53 1970.59 1573.30 1984.83 1588.16 L 1981.77 1522.18 C 2074.14 1501.21 2141.44 1520.21 2182.06 1583.89 L 2165.47 1534.17 C 2319.83 1524.48 2348.70 1642.91 2371.52 1666.49 L 2354.64 1602.03"/>
  <path fill="#ffffff" d="M 1273.87 2693.66 C 1303.01 2692.93 1285.59 2692.68 1292.03 2700.29 C 1280.32 2707.00 1287.55 2703.88 1283.40 2710.17 C 1229.61 2719.54 1156.26 2787.63 1118.07 2608.08 C 1129.57 2616.39 1132.76 2625.15 1143.99 2637.37 C 1190.06 2687.43 1201.25 2612.69 1242.69 2698.04 L 1273.87 2693.66"/>
  <path fill="#ffffff" d="M 1286.96 2088.90 C 1349.62 2112.76 1374.49 2123.63 1408.56 2167.96 C 1447.84 2219.11 1445.04 2251.88 1452.56 2323.56 C 1482.96 2310.45 1506.34 2300.79 1545.18 2294.13 C 1547.22 2210.36 1518.95 2162.40 1474.33 2124.39 C 1421.10 2079.02 1314.44 2067.76 1286.96 2088.90"/>
  <path fill="#ffffff" d="M 2957.47 2045.97 C 2956.46 2045.30 2955.11 2044.48 2954.38 2044.06 C 2953.65 2043.64 2952.19 2042.66 2951.29 2042.15 L 2932.99 2033.87 L 2931.81 2016.49 C 2934.84 1995.88 2954.27 1968.03 2958.79 1935.88 C 2964.74 1893.49 2951.46 1873.64 2946.46 1842.33 C 2934.39 1830.60 2922.82 1817.88 2920.72 1797.61 C 2934.34 1763.32 2947.14 1728.37 2939.05 1684.63 C 2933.44 1654.25 2912.71 1615.64 2889.95 1601.69 C 2904.07 1646.61 2923.67 1706.75 2899.41 1755.49 C 2890.25 1709.81 2868.86 1671.07 2841.63 1643.30 C 2822.03 1623.28 2780.37 1585.24 2745.52 1577.94 C 2795.30 1622.30 2837.92 1707.48 2829.05 1804.12 C 2819.73 1906.09 2772.17 1965.50 2743.25 2030.89 C 2809.76 2004.33 2821.97 1974.54 2855.61 1946.24 C 2853.20 2085.28 2755.57 2217.04 2654.53 2248.48 C 2675.36 2207.07 2690.91 2172.68 2685.30 2120.43 C 2680.86 2079.10 2657.84 2027.83 2630.78 2017.13 C 2649.95 2151.00 2544.86 2260.27 2449.35 2289.28 C 2479.67 2231.66 2516.23 2189.32 2495.05 2096.48 C 2481.75 2038.08 2434.69 1978.19 2386.68 1961.94 C 2406.45 2037.12 2407.32 2082.10 2364.05 2141.54 C 2336.54 2179.27 2284.46 2219.62 2220.78 2227.62 C 2253.88 2173.43 2278.59 2128.43 2246.70 2051.33 C 2227.43 2004.78 2178.86 1949.39 2127.14 1936.08 C 2152.98 2021.07 2142.14 2082.58 2097.07 2146.23 C 2066.70 2189.16 2005.18 2241.46 1942.11 2258.34 C 1961.89 2224.48 1978.20 2204.96 1990.08 2154.99 C 2017.69 2038.98 1937.49 1900.76 1837.89 1870.77 C 1856.73 1908.51 1873.22 1919.40 1881.09 1975.22 C 1897.75 2093.39 1821.68 2213.41 1727.26 2248.71 C 1752.90 2193.26 1772.32 2156.81 1763.38 2080.30 C 1751.02 1974.54 1677.88 1894.75 1580.21 1862.71 C 1537.88 1848.85 1449.61 1840.34 1408.80 1860.64 C 1507.25 1884.14 1583.11 1943.21 1616.64 2026.91 C 1655.41 2123.74 1620.34 2245.37 1552.02 2291.92 C 1637.58 2297.11 1659.70 2289.75 1731.00 2326.48 C 1786.34 2354.95 1809.43 2380.66 1848.30 2419.50 C 1903.25 2420.84 1937.14 2381.20 1961.06 2358.37 C 2066.28 2460.57 2153.31 2363.99 2178.30 2352.08 C 2194.02 2386.53 2223.56 2415.17 2269.27 2425.28 C 2329.91 2438.67 2361.13 2417.75 2404.93 2401.11 C 2434.05 2429.60 2488.43 2454.17 2547.11 2440.02 C 2615.16 2423.62 2629.37 2387.12 2658.77 2360.54 C 2773.63 2395.96 2839.16 2352.03 2859.82 2231.41 C 2902.72 2206.68 2919.51 2204.07 2944.55 2165.43 C 2966.51 2131.57 2972.49 2084.07 2957.47 2045.97"/>
  <path fill="#ffffff" d="M 866.33 2392.77 L 867.94 2364.49 C 866.86 2366.52 861.72 2375.86 861.06 2380.27 C 856.91 2408.40 858.90 2383.87 866.33 2392.77"/>
  <path fill="#ffffff" d="M 1095.75 2356.86 C 1073.23 2312.86 960.96 2250.34 912.44 2312.38 C 960.20 2308.76 996.00 2311.68 1028.47 2334.37 C 1044.30 2345.43 1081.70 2384.68 1090.39 2403.12 C 1025.62 2390.55 981.48 2317.46 899.84 2351.69 L 901.84 2398.89 C 932.77 2421.60 958.01 2428.87 959.77 2479.24 L 876.97 2432.72 L 863.07 2443.84 C 864.63 2469.39 939.14 2567.48 961.61 2601.54 C 971.57 2616.67 1003.69 2662.13 1005.16 2681.70 C 1008.32 2723.45 988.16 2742.48 1012.65 2790.97 C 1052.25 2869.44 1192.57 2868.49 1286.11 2809.16 C 1304.82 2797.32 1341.86 2765.76 1349.56 2749.19 C 1356.31 2743.75 1355.70 2744.84 1361.70 2737.99 C 1358.25 2720.95 1344.07 2701.21 1336.00 2681.45 C 1310.79 2619.59 1306.61 2545.02 1291.16 2481.37 C 1261.16 2357.64 1195.21 2351.75 1095.75 2356.86"/>
  <path fill="#ffffff" d="M 1423.18 2929.08 L 1417.80 2920.37 C 1417.54 2921.16 1416.75 2918.16 1416.05 2917.17 C 1445.73 2899.12 1466.96 2886.18 1478.19 2854.87 L 1422.67 2856.19 C 1424.47 2837.94 1428.53 2833.05 1421.44 2818.91 L 1415.40 2834.96 C 1404.72 2843.28 1407.75 2847.09 1392.62 2857.76 C 1354.94 2884.30 1319.48 2885.47 1271.47 2879.07 C 1277.71 2892.80 1271.59 2881.40 1277.70 2890.08 C 1280.41 2893.93 1281.45 2894.94 1284.51 2897.94 C 1288.43 2901.79 1294.56 2906.03 1299.36 2909.54 C 1310.38 2917.57 1318.31 2922.79 1328.77 2929.13 C 1347.71 2940.56 1370.37 2953.20 1394.26 2961.64 C 1700.33 3069.85 1955.19 2759.95 1825.59 2507.96 C 1710.44 2284.08 1400.83 2322.02 1375.56 2547.52 C 1362.52 2663.90 1445.85 2767.89 1545.28 2776.96 C 1691.87 2790.32 1740.51 2630.82 1669.59 2566.00 C 1627.91 2527.87 1548.21 2542.86 1550.46 2609.60 C 1551.36 2636.61 1569.54 2657.10 1590.77 2666.90 C 1625.13 2682.74 1643.32 2672.29 1669.96 2658.93 C 1654.34 2707.41 1610.56 2731.34 1545.49 2727.80 L 1538.20 2697.20 C 1522.20 2704.75 1518.73 2705.62 1496.51 2704.47 C 1492.40 2696.97 1496.32 2684.50 1496.67 2677.23 C 1461.16 2679.56 1453.63 2663.36 1444.38 2636.64 C 1466.33 2623.72 1460.50 2629.31 1477.70 2614.04 C 1461.78 2604.68 1426.55 2611.82 1450.80 2528.52 C 1468.77 2525.73 1481.34 2533.77 1498.94 2520.85 C 1487.51 2515.68 1481.25 2512.12 1474.77 2507.15 C 1474.67 2476.86 1504.33 2455.77 1527.68 2445.18 C 1544.05 2455.09 1541.48 2464.89 1568.15 2465.57 L 1557.06 2430.39 C 1584.80 2423.85 1598.16 2415.42 1632.22 2420.87 C 1641.84 2436.14 1643.74 2452.48 1647.69 2471.69 C 1704.07 2413.54 1728.11 2467.28 1755.07 2471.88 C 1748.44 2505.49 1718.37 2490.75 1740.45 2538.82 C 1776.22 2525.48 1768.88 2530.51 1800.02 2544.38 C 1818.17 2571.16 1818.52 2568.46 1832.29 2606.43 C 1824.57 2596.26 1810.36 2598.37 1790.78 2602.33 C 1781.55 2638.07 1807.82 2635.18 1778.10 2666.68 C 1795.51 2676.79 1799.55 2681.59 1808.79 2693.94 C 1809.57 2695.00 1812.38 2698.88 1812.99 2699.70 C 1813.49 2700.37 1814.89 2700.90 1815.27 2702.64 C 1815.65 2704.38 1816.75 2704.69 1817.62 2705.62 C 1813.42 2748.97 1811.71 2751.24 1793.99 2787.01 C 1777.06 2770.42 1779.35 2764.44 1746.07 2762.42 C 1752.23 2777.02 1751.53 2797.09 1750.17 2815.96 C 1734.04 2810.79 1736.54 2806.66 1718.31 2801.36 C 1726.47 2883.51 1670.41 2901.93 1608.48 2924.59 C 1597.21 2913.83 1626.29 2918.61 1631.82 2858.61 L 1592.32 2860.49 L 1581.44 2850.10 C 1566.55 2931.41 1500.72 2931.32 1423.18 2929.08"/>
  <path fill="#ffffff" d="M 1026.36 2839.09 C 1025.42 2887.97 1069.74 2936.01 1097.09 2955.97 C 1138.47 2986.18 1186.73 3000.89 1251.48 2991.27 C 1214.05 2979.33 1169.29 2987.28 1111.31 2941.68 C 1081.59 2918.30 1047.08 2878.20 1026.36 2839.09"/>
  <path fill="#000000" d="M 1081.10 2252.66 C 1080.13 2217.35 1088.59 2207.21 1090.08 2181.44 C 1092.36 2142.07 1026.81 2107.15 1119.59 2004.30 C 1115.60 1957.92 1098.98 1942.70 1120.30 1890.71 C 1132.79 1860.27 1159.27 1832.98 1190.51 1822.93 C 1189.86 1761.33 1191.79 1731.52 1224.29 1692.01 C 1247.04 1664.36 1287.30 1640.72 1340.70 1642.79 C 1384.89 1549.92 1482.95 1510.78 1581.22 1541.38 C 1621.28 1553.85 1632.98 1572.55 1660.76 1586.70 C 1651.93 1453.87 1717.86 1444.80 1742.07 1315.54 C 1760.33 1218.09 1787.23 1088.57 1728.07 1016.11 L 1610.64 1013.95 C 1609.43 1079.98 1625.54 1043.82 1629.86 1078.41 C 1631.74 1093.46 1623.52 1131.64 1622.15 1149.78 C 1617.98 1205.93 1629.96 1311.02 1649.81 1365.74 C 1680.54 1450.56 1692.11 1397.86 1655.25 1477.34 C 1647.09 1494.97 1639.46 1523.81 1629.93 1536.05 C 1608.41 1515.50 1554.41 1505.28 1518.69 1506.06 C 1465.36 1507.21 1445.64 1522.23 1405.80 1536.55 C 1432.82 1427.31 1470.51 1462.27 1491.30 1285.72 C 1521.53 1028.88 1493.55 1121.03 1456.49 1010.74 C 1284.30 1004.90 1128.39 1000.07 958.20 983.45 L 912.43 978.12 C 903.28 975.70 914.68 979.92 904.48 975.59 C 892.80 970.62 901.47 976.66 892.71 968.43 C 1265.39 936.31 1667.71 938.48 2048.70 938.03 C 2238.41 937.77 2448.53 933.42 2636.22 944.29 C 2787.11 953.02 3070.93 947.40 3207.85 970.65 C 3188.76 984.35 3035.52 991.65 3012.50 995.11 C 3004.86 1141.91 3050.71 1052.02 3031.28 1139.33 C 3003.77 1263.04 3034.29 1418.75 3029.40 1519.32 C 3027.66 1555.87 2996.33 1554.30 2975.19 1599.08 C 2997.84 1644.76 3015.70 1658.29 3012.55 1728.32 C 3011.66 1749.09 2999.59 1787.27 3000.23 1794.97 C 3000.76 1801.48 3019.18 1836.86 3024.38 1852.55 C 3047.68 1923.33 3022.61 1956.57 3017.44 1993.10 C 3014.07 2017.11 3086.23 2130.39 2976.73 2237.67 C 2939.39 2274.26 2955.22 2254.55 2932.31 2273.41 C 2919.29 2284.11 2924.39 2280.74 2918.28 2299.58 C 2861.84 2473.85 2689.82 2437.29 2681.03 2439.65 C 2680.41 2439.82 2566.26 2562.54 2425.37 2496.09 C 2386.68 2477.84 2409.09 2477.98 2367.09 2491.40 C 2322.50 2505.61 2263.32 2500.75 2220.41 2482.75 C 2194.19 2471.74 2184.45 2460.60 2164.49 2448.27 C 2109.06 2467.56 2084.11 2484.57 2015.14 2470.31 C 1936.59 2454.05 1996.97 2436.14 1925.23 2473.01 L 1891.91 2489.68 C 1929.80 2600.33 1942.77 2682.68 1897.05 2796.84 C 1822.31 2983.57 1614.07 3086.33 1426.57 3040.48 C 1405.74 3035.38 1373.69 3019.99 1355.84 3024.76 C 1316.29 3035.38 1243.03 3090.23 1122.43 3046.16 C 1044.55 3017.68 972.09 2940.90 956.80 2848.41 C 945.13 2777.86 946.58 2810.93 938.60 2776.45 C 917.70 2686.22 968.80 2722.58 901.13 2626.45 C 887.71 2607.38 877.35 2590.06 863.76 2570.21 C 812.37 2495.30 752.77 2416.86 827.09 2305.62 C 851.53 2269.04 881.88 2241.80 932.10 2228.38 C 1014.74 2206.29 1051.38 2245.06 1081.10 2252.66 Z"/>
</svg>